<svg width="551" height="74" viewBox="0 0 551 74" fill="none" xmlns="http://www.w3.org/2000/svg">
<path d="M290.8 57.92C286.373 57.92 282.08 57.3333 277.92 56.16C273.813 54.9333 270.507 53.36 268 51.44L272.4 41.68C274.8 43.44 277.653 44.8533 280.96 45.92C284.267 46.9867 287.573 47.52 290.88 47.52C294.56 47.52 297.28 46.9867 299.04 45.92C300.8 44.8 301.68 43.3333 301.68 41.52C301.68 40.1867 301.147 39.0933 300.08 38.24C299.067 37.3333 297.733 36.6133 296.08 36.08C294.48 35.5467 292.293 34.96 289.52 34.32C285.253 33.3067 281.76 32.2933 279.04 31.28C276.32 30.2667 273.973 28.64 272 26.4C270.08 24.16 269.12 21.1733 269.12 17.44C269.12 14.1867 270 11.2533 271.76 8.64C273.52 5.97333 276.16 3.86666 279.68 2.32C283.253 0.773332 287.6 0 292.72 0C296.293 0 299.787 0.426665 303.2 1.28C306.613 2.13333 309.6 3.36 312.16 4.96L308.16 14.8C302.987 11.8667 297.813 10.4 292.64 10.4C289.013 10.4 286.32 10.9867 284.56 12.16C282.853 13.3333 282 14.88 282 16.8C282 18.72 282.987 20.16 284.96 21.12C286.987 22.0267 290.053 22.9333 294.16 23.84C298.427 24.8533 301.92 25.8667 304.64 26.88C307.36 27.8933 309.68 29.4933 311.6 31.68C313.573 33.8667 314.56 36.8267 314.56 40.56C314.56 43.76 313.653 46.6933 311.84 49.36C310.08 51.9733 307.413 54.0533 303.84 55.6C300.267 57.1467 295.92 57.92 290.8 57.92Z" fill="black"/>
<path d="M348.456 54.88C347.229 55.7867 345.709 56.48 343.896 56.96C342.136 57.3867 340.296 57.6 338.376 57.6C333.202 57.6 329.229 56.2933 326.456 53.68C323.682 51.0667 322.296 47.2267 322.296 42.16V4.4H334.776V14.88H345.416V24.48H334.776V42C334.776 43.8133 335.229 45.2267 336.136 46.24C337.042 47.2 338.349 47.68 340.056 47.68C341.976 47.68 343.682 47.1467 345.176 46.08L348.456 54.88Z" fill="black"/>
<path d="M418.518 19.6C420.011 17.52 422.011 15.9467 424.518 14.88C427.078 13.8133 430.011 13.28 433.318 13.28V24.8C431.931 24.6933 430.998 24.64 430.518 24.64C426.945 24.64 424.145 25.6533 422.118 27.68C420.091 29.6533 419.078 32.64 419.078 36.64V56.96H406.598V13.92H418.518V19.6Z" fill="black"/>
<path d="M440.739 13.92H453.219V56.96H440.739V13.92Z" fill="black"/>
<path d="M486.481 47.6C488.721 47.6 490.695 47.28 492.401 46.64C494.161 45.9467 495.788 44.88 497.281 43.44L503.921 50.64C499.868 55.28 493.948 57.6 486.161 57.6C481.308 57.6 477.015 56.6667 473.281 54.8C469.548 52.88 466.668 50.24 464.641 46.88C462.615 43.52 461.601 39.7067 461.601 35.44C461.601 31.2267 462.588 27.44 464.561 24.08C466.588 20.6667 469.335 18.0267 472.801 16.16C476.321 14.24 480.268 13.28 484.641 13.28C488.748 13.28 492.481 14.16 495.841 15.92C499.201 17.6267 501.868 20.1333 503.841 23.44C505.868 26.6933 506.881 30.56 506.881 35.04L475.041 41.2C475.948 43.3333 477.361 44.9333 479.281 46C481.255 47.0667 483.655 47.6 486.481 47.6ZM484.641 22.72C481.495 22.72 478.935 23.7333 476.961 25.76C474.988 27.7867 473.948 30.5867 473.841 34.16L494.801 30.08C494.215 27.84 493.015 26.0533 491.201 24.72C489.388 23.3867 487.201 22.72 484.641 22.72Z" fill="black"/>
<path d="M529.75 57.6C526.177 57.6 522.683 57.1733 519.27 56.32C515.857 55.4133 513.137 54.2933 511.11 52.96L515.27 44C517.19 45.2267 519.51 46.24 522.23 47.04C524.95 47.7867 527.617 48.16 530.23 48.16C535.51 48.16 538.15 46.8533 538.15 44.24C538.15 43.0133 537.43 42.1333 535.99 41.6C534.55 41.0667 532.337 40.6133 529.35 40.24C525.83 39.7067 522.923 39.0933 520.63 38.4C518.337 37.7067 516.337 36.48 514.63 34.72C512.977 32.96 512.15 30.4533 512.15 27.2C512.15 24.48 512.923 22.08 514.47 20C516.07 17.8667 518.363 16.2133 521.35 15.04C524.39 13.8667 527.963 13.28 532.07 13.28C535.11 13.28 538.123 13.6267 541.11 14.32C544.15 14.96 546.657 15.8667 548.63 17.04L544.47 25.92C540.683 23.7867 536.55 22.72 532.07 22.72C529.403 22.72 527.403 23.0933 526.07 23.84C524.737 24.5867 524.07 25.5467 524.07 26.72C524.07 28.0533 524.79 28.9867 526.23 29.52C527.67 30.0533 529.963 30.56 533.11 31.04C536.63 31.6267 539.51 32.2667 541.75 32.96C543.99 33.6 545.937 34.8 547.59 36.56C549.243 38.32 550.07 40.7733 550.07 43.92C550.07 46.5867 549.27 48.96 547.67 51.04C546.07 53.12 543.723 54.7467 540.63 55.92C537.59 57.04 533.963 57.6 529.75 57.6Z" fill="black"/>
<path d="M374.656 57.6C370.123 57.6 366.043 56.6667 362.416 54.8C358.843 52.88 356.043 50.24 354.016 46.88C351.99 43.52 350.976 39.7067 350.976 35.44C350.976 31.1734 351.99 27.36 354.016 24C356.043 20.64 358.843 18.0267 362.416 16.16C366.043 14.24 370.123 13.28 374.656 13.28C379.19 13.28 383.243 14.24 386.816 16.16C390.39 18.0267 393.19 20.64 395.216 24C397.243 27.36 398.256 31.1734 398.256 35.44C398.256 39.7067 397.243 43.52 395.216 46.88C393.19 50.24 390.39 52.88 386.816 54.8C383.243 56.6667 379.19 57.6 374.656 57.6Z" fill="#FBD200"/>
<path d="M0.640015 1H13.6V46.44H41.68V57H0.640015V1Z" fill="black"/>
<path d="M48.0413 13.96H60.5213V57H48.0413V13.96Z" fill="black"/>
<path d="M114.824 13.96L96.6638 57H83.7838L65.7038 13.96H78.5838L90.5038 43.24L102.824 13.96H114.824Z" fill="black"/>
<path d="M119.916 13.96H132.396V23.24V57H119.916V13.96Z" fill="black"/>
<path d="M170.139 13.32C175.472 13.32 179.765 14.92 183.019 18.12C186.325 21.32 187.979 26.0667 187.979 32.36V57H175.499V34.28C175.499 30.8667 174.752 28.3333 173.259 26.68C171.765 24.9733 169.605 24.12 166.779 24.12C163.632 24.12 161.125 25.1067 159.259 27.08C157.392 29 156.459 31.88 156.459 35.72V57H143.979V13.96H155.899V19C157.552 17.1867 159.605 15.8 162.059 14.84C164.512 13.8267 167.205 13.32 170.139 13.32Z" fill="black"/>
<path d="M245.16 12.96L244.16 23.56V49.8C244.16 57.6933 242.107 63.56 238 67.4C233.893 71.24 227.893 73.16 220 73.16C215.84 73.16 211.893 72.6533 208.16 71.64C204.427 70.6267 201.333 69.16 198.88 67.24L203.84 58.28C205.653 59.7733 207.947 60.9467 210.72 61.8C213.493 62.7067 216.267 63.16 219.04 63.16C223.36 63.16 226.533 62.1733 228.56 60.2C230.64 58.28 231.68 55.3467 231.68 51.4V49.56C228.427 53.1333 223.893 54.92 218.08 54.92C214.133 54.92 210.507 54.0667 207.2 52.36C203.947 50.6 201.36 48.1467 199.44 45C197.52 41.8533 196.56 38.2267 196.56 34.12C196.56 30.0133 197.52 26.3867 199.44 23.24C201.36 20.0933 203.947 17.6667 207.2 15.96C210.507 14.2 214.133 13.32 218.08 13.32C225.163 13.32 225.5 13.32 232.32 13.96L245.16 12.96ZM220.56 44.68C223.867 44.68 226.56 43.72 228.64 41.8C230.773 39.8267 231.84 37.2667 231.84 34.12C231.84 30.9733 230.773 28.44 228.64 26.52C226.56 24.5467 223.867 23.56 220.56 23.56C217.253 23.56 214.533 24.5467 212.4 26.52C210.267 28.44 209.2 30.9733 209.2 34.12C209.2 37.2667 210.267 39.8267 212.4 41.8C214.533 43.72 217.253 44.68 220.56 44.68Z" fill="black"/>
</svg>
